<?xml version="1.0" standalone="no"?><!DOCTYPE svg PUBLIC "-//W3C//DTD SVG 1.1//EN" "http://www.w3.org/Graphics/SVG/1.1/DTD/svg11.dtd"><svg t="1570082912756" class="icon" viewBox="0 0 1024 1024" version="1.1" xmlns="http://www.w3.org/2000/svg" p-id="1640" xmlns:xlink="http://www.w3.org/1999/xlink" width="200" height="200"><defs><style type="text/css"></style></defs><path d="M648.533333 224.426667h-99.328a97.28 97.28 0 0 1-101.205333-95.232A97.28 97.28 0 0 1 549.205333 34.133333h165.717334a17.066667 17.066667 0 0 1 0 34.133334h-165.717334a63.658667 63.658667 0 0 0-67.072 61.098666 63.658667 63.658667 0 0 0 67.072 61.098667H648.533333a17.066667 17.066667 0 0 1 0 34.133333z" fill="#808285" p-id="1641"></path><path d="M668.16 130.730667h-93.696a17.066667 17.066667 0 0 1 0-34.133334h93.696a17.066667 17.066667 0 0 1 0 34.133334zM674.645333 349.354667h-72.533333a17.066667 17.066667 0 0 1 0-34.133334h72.533333a47.445333 47.445333 0 0 0 46.933334-45.397333 47.445333 47.445333 0 0 0-46.933334-45.397333H551.253333a17.066667 17.066667 0 0 1 0-34.133334h123.392a81.408 81.408 0 0 1 81.066667 79.530667 81.408 81.408 0 0 1-81.066667 79.530667z" fill="#808285" p-id="1642"></path><path d="M543.232 427.52a17.066667 17.066667 0 0 1-17.066667-17.066667c0-75.264 51.2-95.232 79.530667-95.232a17.066667 17.066667 0 0 1 0 34.133334c-7.68 0-45.568 3.925333-45.568 61.098666a17.066667 17.066667 0 0 1-16.896 17.066667zM472.917333 424.789333a17.066667 17.066667 0 0 1-17.066666-17.066666 124.416 124.416 0 0 1 19.114666-72.704 17.066667 17.066667 0 0 1 27.477334 20.309333 95.232 95.232 0 0 0-12.288 52.394667 17.066667 17.066667 0 0 1-17.066667 17.066666z" fill="#808285" p-id="1643"></path><path d="M551.253333 955.733333a264.362667 264.362667 0 0 1-264.192-264.021333V427.52h528.213334v264.192A264.362667 264.362667 0 0 1 551.253333 955.733333z" fill="#27AAE1" p-id="1644"></path><path d="M798.208 444.586667v247.125333a246.954667 246.954667 0 0 1-494.08 0V444.586667h494.08m34.133333-34.133334H269.994667v281.258667a281.088 281.088 0 0 0 562.346666 0V410.453333z" fill="#2E3192" p-id="1645"></path><path d="M676.181333 849.237333a17.066667 17.066667 0 0 1-12.458666-28.842666 209.92 209.92 0 0 0 57.856-144.554667 17.066667 17.066667 0 0 1 34.133333 0 244.053333 244.053333 0 0 1-67.072 167.936 17.066667 17.066667 0 0 1-12.458667 5.461333z" fill="#FFFFFF" p-id="1646"></path><path d="M285.696 708.778667h-40.96a110.933333 110.933333 0 1 1 0-221.866667H273.066667a17.066667 17.066667 0 0 1 0 34.133333h-28.330667a76.8 76.8 0 1 0 0 153.6h40.96a17.066667 17.066667 0 0 1 0 34.133334z" fill="#2E3192" p-id="1647"></path><path d="M363.690667 622.762667a17.066667 17.066667 0 0 1-17.066667-17.066667V512a17.066667 17.066667 0 0 1 34.133333 0v93.696a17.066667 17.066667 0 0 1-17.066666 17.066667z" fill="#FFFFFF" p-id="1648"></path><path d="M738.645333 989.866667h-375.466666a17.066667 17.066667 0 1 1 0-34.133334h375.466666a17.066667 17.066667 0 1 1 0 34.133334z" fill="#2E3192" p-id="1649"></path></svg>