<?xml version="1.0" standalone="no"?><!DOCTYPE svg PUBLIC "-//W3C//DTD SVG 1.1//EN" "http://www.w3.org/Graphics/SVG/1.1/DTD/svg11.dtd"><svg t="1570082942870" class="icon" viewBox="0 0 1024 1024" version="1.1" xmlns="http://www.w3.org/2000/svg" p-id="1920" xmlns:xlink="http://www.w3.org/1999/xlink" width="200" height="200"><defs><style type="text/css"></style></defs><path d="M179.2 634.112v-51.2a54.784 54.784 0 0 0-6.4-17.92 104.128 104.128 0 0 1-12.8-46.08c0-32 29.44-44.8 47.04-52.48a82.24 82.24 0 0 0 16.128-8.192 87.04 87.04 0 0 0 4.992-17.984c3.584-16.576 7.936-37.184 24.96-50.368a56.448 56.448 0 0 1 35.456-10.368c6.4 0 12.224 0.512 18.112 1.024s10.048 0.896 14.272 0.896a18.816 18.816 0 0 0 7.104-0.768 60.736 60.736 0 0 0 9.6-12.288c8.064-11.968 19.2-28.288 39.36-34.048a49.088 49.088 0 0 1 13.824-1.92 96.704 96.704 0 0 1 34.816 8.512 66.432 66.432 0 0 0 18.304 5.44h0.768a90.496 90.496 0 0 0 17.408-10.816c14.08-10.048 30.08-21.44 49.856-21.44s35.712 11.392 49.856 21.44a87.168 87.168 0 0 0 17.536 10.816h0.64a67.072 67.072 0 0 0 18.304-5.44 96.704 96.704 0 0 1 34.816-8.512 49.088 49.088 0 0 1 13.824 1.92c20.352 5.76 31.296 22.08 39.36 34.048a60.928 60.928 0 0 0 9.664 12.352 21.376 21.376 0 0 0 7.04 0.704c4.224 0 9.088-0.448 14.272-0.896s11.904-1.024 18.112-1.024a56.448 56.448 0 0 1 35.456 10.368c17.024 13.184 21.376 33.792 24.96 50.368a77.952 77.952 0 0 0 5.248 18.24 87.744 87.744 0 0 0 15.872 7.936c17.6 7.68 47.04 20.48 47.04 52.48a104.128 104.128 0 0 1-12.8 46.08 54.784 54.784 0 0 0-6.4 17.92v51.2z" fill="#453F3C" p-id="1921"></path><path d="M780.8 474.112c-12.224-15.808-8.448-50.688-25.6-64-15.744-12.16-50.816 3.072-70.4-6.4-17.92-8.64-23.936-38.848-44.8-44.8-19.2-5.44-42.496 15.616-64 12.8-19.84-2.56-42.368-32-64-32s-44.16 29.44-64 32c-21.504 2.816-44.8-18.24-64-12.8-20.864 5.952-26.88 36.16-44.8 44.8-19.584 9.472-54.656-5.76-70.4 6.4-17.152 13.312-13.376 48.192-25.6 64-12.8 17.024-57.6 19.2-57.6 44.8s19.2 43.072 19.2 64v25.6h614.4v-25.6c0-20.928 19.2-38.4 19.2-64s-44.48-27.776-57.6-44.8z" fill="#5E7D65" p-id="1922"></path><path d="M211.2 589.312v-6.4c0-12.8-19.2-57.6-12.8-64 0-6.4 50.816-25.152 57.6-32 7.168-9.28 6.4-57.6 19.2-70.4 6.4-6.4 64 6.4 70.4 0 6.4 0 32-38.4 38.4-44.8s38.4 12.8 64 12.8 51.2-32 64-32 38.4 32 64 32 57.6-19.2 64-12.8 32 44.8 38.4 44.8c6.4 6.4 64-6.4 70.4 0 12.8 12.8 12.032 61.12 19.2 70.4 6.784 6.848 57.6 25.6 57.6 32 6.4 6.4-12.8 51.2-12.8 64v6.4h38.4v-288H172.8v288z" fill="#FFFFFF" opacity=".24" p-id="1923"></path><path d="M256 774.912a76.8 76.8 0 0 1-76.8-76.8v-115.2c0-114.816 146.176-204.8 332.8-204.8s332.8 89.984 332.8 204.8v115.2a76.8 76.8 0 0 1-76.8 76.8z" opacity=".14" p-id="1924"></path><path d="M172.8 621.312m-70.4 0a70.4 70.4 0 1 0 140.8 0 70.4 70.4 0 1 0-140.8 0Z" fill="#453F3C" p-id="1925"></path><path d="M172.8 621.312m-44.8 0a44.8 44.8 0 1 0 89.6 0 44.8 44.8 0 1 0-89.6 0Z" fill="#7A6862" p-id="1926"></path><path d="M247.744 607.04a57.6 57.6 0 0 0-6.72-15.808 51.2 51.2 0 1 0-98.048 0 57.6 57.6 0 0 0-6.72 15.808 76.8 76.8 0 1 0 111.488 0z" opacity=".14" p-id="1927"></path><path d="M192 576.512m-38.4 0a38.4 38.4 0 1 0 76.8 0 38.4 38.4 0 1 0-76.8 0Z" fill="#453F3C" p-id="1928"></path><path d="M192 576.512m-12.8 0a12.8 12.8 0 1 0 25.6 0 12.8 12.8 0 1 0-25.6 0Z" fill="#99827A" p-id="1929"></path><path d="M192 621.312m-51.2 0a51.2 51.2 0 1 0 102.4 0 51.2 51.2 0 1 0-102.4 0Z" opacity=".14" p-id="1930"></path><path d="M192 659.712m-64 0a64 64 0 1 0 128 0 64 64 0 1 0-128 0Z" fill="#453F3C" p-id="1931"></path><path d="M192 621.312m-44.8 0a44.8 44.8 0 1 0 89.6 0 44.8 44.8 0 1 0-89.6 0Z" fill="#453F3C" p-id="1932"></path><path d="M192 659.712m-38.4 0a38.4 38.4 0 1 0 76.8 0 38.4 38.4 0 1 0-76.8 0Z" fill="#99827A" p-id="1933"></path><path d="M192 621.312m-19.2 0a19.2 19.2 0 1 0 38.4 0 19.2 19.2 0 1 0-38.4 0Z" fill="#99827A" p-id="1934"></path><path d="M179.2 595.712h12.8v115.2h-12.8z" opacity=".14" p-id="1935"></path><path d="M179.2 653.312m-6.4 0a6.4 6.4 0 1 0 12.8 0 6.4 6.4 0 1 0-12.8 0Z" fill="#453F3C" p-id="1936"></path><path d="M160 678.912m-6.4 0a6.4 6.4 0 1 0 12.8 0 6.4 6.4 0 1 0-12.8 0Z" fill="#453F3C" p-id="1937"></path><path d="M172.8 627.712m-6.4 0a6.4 6.4 0 1 0 12.8 0 6.4 6.4 0 1 0-12.8 0Z" fill="#453F3C" p-id="1938"></path><path d="M147.2 602.112m-6.4 0a6.4 6.4 0 1 0 12.8 0 6.4 6.4 0 1 0-12.8 0Z" fill="#453F3C" p-id="1939"></path><path d="M851.2 621.312m-70.4 0a70.4 70.4 0 1 0 140.8 0 70.4 70.4 0 1 0-140.8 0Z" fill="#453F3C" p-id="1940"></path><path d="M851.2 621.312m-44.8 0a44.8 44.8 0 1 0 89.6 0 44.8 44.8 0 1 0-89.6 0Z" fill="#7A6862" p-id="1941"></path><path d="M776.256 607.04a57.6 57.6 0 0 1 6.4-15.808 51.2 51.2 0 1 1 98.048 0 57.6 57.6 0 0 1 6.72 15.808 76.8 76.8 0 1 1-111.488 0z" opacity=".14" p-id="1942"></path><path d="M832 576.512m-38.4 0a38.4 38.4 0 1 0 76.8 0 38.4 38.4 0 1 0-76.8 0Z" fill="#453F3C" p-id="1943"></path><path d="M832 576.512m-12.8 0a12.8 12.8 0 1 0 25.6 0 12.8 12.8 0 1 0-25.6 0Z" fill="#99827A" p-id="1944"></path><path d="M832 621.312m-51.2 0a51.2 51.2 0 1 0 102.4 0 51.2 51.2 0 1 0-102.4 0Z" opacity=".14" p-id="1945"></path><path d="M832 659.712m-64 0a64 64 0 1 0 128 0 64 64 0 1 0-128 0Z" fill="#453F3C" p-id="1946"></path><path d="M832 621.312m-44.8 0a44.8 44.8 0 1 0 89.6 0 44.8 44.8 0 1 0-89.6 0Z" fill="#453F3C" p-id="1947"></path><path d="M832 659.712m-38.4 0a38.4 38.4 0 1 0 76.8 0 38.4 38.4 0 1 0-76.8 0Z" fill="#99827A" p-id="1948"></path><path d="M832 621.312m-19.2 0a19.2 19.2 0 1 0 38.4 0 19.2 19.2 0 1 0-38.4 0Z" fill="#99827A" p-id="1949"></path><path d="M844.8 710.976h-12.8v-115.2h12.8z" opacity=".14" p-id="1950"></path><path d="M844.8 653.312m-6.4 0a6.4 6.4 0 1 0 12.8 0 6.4 6.4 0 1 0-12.8 0Z" fill="#453F3C" p-id="1951"></path><path d="M864 678.912m-6.4 0a6.4 6.4 0 1 0 12.8 0 6.4 6.4 0 1 0-12.8 0Z" fill="#453F3C" p-id="1952"></path><path d="M851.2 627.712m-6.4 0a6.4 6.4 0 1 0 12.8 0 6.4 6.4 0 1 0-12.8 0Z" fill="#453F3C" p-id="1953"></path><path d="M876.8 602.112m-6.4 0a6.4 6.4 0 1 0 12.8 0 6.4 6.4 0 1 0-12.8 0Z" fill="#453F3C" p-id="1954"></path><path d="M281.6 723.712a64 64 0 0 1-64-64v-115.2c0-111.232 123.84-192 294.4-192s294.4 80.768 294.4 192v115.2a64 64 0 0 1-64 64z" fill="#453F3C" p-id="1955"></path><path d="M512 378.112c-162.624 0-268.8 74.496-268.8 166.4v115.2a38.4 38.4 0 0 0 38.4 38.4h460.8a38.4 38.4 0 0 0 38.4-38.4v-115.2c0-91.904-106.176-166.4-268.8-166.4z" fill="#EAC363" p-id="1956"></path><path d="M256 762.112a64 64 0 0 1-64-64v-115.2c0-107.648 140.8-192 320-192s320 84.352 320 192v115.2a64 64 0 0 1-64 64z" fill="#453F3C" p-id="1957"></path><path d="M512 416.512c-162.624 0-294.4 74.496-294.4 166.4v115.2a38.4 38.4 0 0 0 38.4 38.4h512a38.4 38.4 0 0 0 38.4-38.4v-115.2c0-91.904-131.776-166.4-294.4-166.4z" fill="#EACE8F" p-id="1958"></path><path d="M230.4 582.912c0-84.8 126.08-153.6 281.6-153.6s281.6 68.8 281.6 153.6v115.2h12.8v-115.2c0-91.904-131.776-166.4-294.4-166.4s-294.4 74.496-294.4 166.4v115.2h12.8z" fill="#FFFFFF" opacity=".24" p-id="1959"></path><path d="M768 723.712H256a25.6 25.6 0 0 1-25.6-25.6h-12.8a38.4 38.4 0 0 0 38.4 38.4h512a38.4 38.4 0 0 0 38.4-38.4h-12.8a25.6 25.6 0 0 1-25.6 25.6z" opacity=".14" p-id="1960"></path><path d="M569.6 416.512h12.8v307.2h-12.8zM595.2 416.512h6.4v307.2h-6.4z" fill="#FFFFFF" opacity=".24" p-id="1961"></path><path d="M339.2 544.512m-19.2 0a19.2 19.2 0 1 0 38.4 0 19.2 19.2 0 1 0-38.4 0Z" fill="#D1B880" p-id="1962"></path><path d="M422.4 627.712m-12.8 0a12.8 12.8 0 1 0 25.6 0 12.8 12.8 0 1 0-25.6 0Z" fill="#D1B880" p-id="1963"></path><path d="M640 582.912m-12.8 0a12.8 12.8 0 1 0 25.6 0 12.8 12.8 0 1 0-25.6 0Z" fill="#D1B880" p-id="1964"></path><path d="M723.2 691.712m-19.2 0a19.2 19.2 0 1 0 38.4 0 19.2 19.2 0 1 0-38.4 0Z" fill="#D1B880" p-id="1965"></path><path d="M300.8 653.312m-6.4 0a6.4 6.4 0 1 0 12.8 0 6.4 6.4 0 1 0-12.8 0Z" fill="#D1B880" p-id="1966"></path><path d="M550.4 512.512m-6.4 0a6.4 6.4 0 1 0 12.8 0 6.4 6.4 0 1 0-12.8 0Z" fill="#D1B880" p-id="1967"></path><path d="M537.6 685.312m-6.4 0a6.4 6.4 0 1 0 12.8 0 6.4 6.4 0 1 0-12.8 0Z" fill="#D1B880" p-id="1968"></path><path d="M755.2 595.712m-6.4 0a6.4 6.4 0 1 0 12.8 0 6.4 6.4 0 1 0-12.8 0Z" fill="#D1B880" p-id="1969"></path><path d="M441.6 474.112m-6.4 0a6.4 6.4 0 1 0 12.8 0 6.4 6.4 0 1 0-12.8 0Z" fill="#D1B880" p-id="1970"></path><path d="M704 499.712m-6.4 0a6.4 6.4 0 1 0 12.8 0 6.4 6.4 0 1 0-12.8 0Z" fill="#D1B880" p-id="1971"></path></svg>