<?xml version="1.0" standalone="no"?><!DOCTYPE svg PUBLIC "-//W3C//DTD SVG 1.1//EN" "http://www.w3.org/Graphics/SVG/1.1/DTD/svg11.dtd"><svg t="1557884357995" class="icon" style="" viewBox="0 0 1024 1024" version="1.1" xmlns="http://www.w3.org/2000/svg" p-id="3494" xmlns:xlink="http://www.w3.org/1999/xlink" width="200" height="200"><defs><style type="text/css"></style></defs><path d="M676.2 855.9h-31.4c-45.3 0-82.1-36.8-82.1-82.1v-90.1c0-9.4-7.6-17-17-17h-67.4c-9.4 0-17 7.6-17 17v90.1c0 45.3-36.8 82.1-82.1 82.1h-31.4c-65.7 0-119.1-53.4-119.1-119.1V555.5c0-1.4-1.1-2.5-2.5-2.5h-72.3c-24 0-45.1-14.5-53.6-37-8.6-22.5-2.5-47.3 15.4-63.3l1-0.8L448.5 192c17.6-15.5 40.1-24 63.5-24s46 8.5 63.5 24l332.4 260.3 0.5 0.4c17.9 16 24 40.8 15.4 63.3s-29.6 37-53.6 37h-72.3c-1.4 0-2.5 1.1-2.5 2.5v181.3c-0.1 65.7-53.5 119.1-119.2 119.1zM478.3 626.7h67.4c31.4 0 57 25.6 57 57v90.1c0 23.2 18.9 42.1 42.1 42.1h31.4c43.6 0 79.1-35.5 79.1-79.1V555.5c0-23.5 19.1-42.5 42.5-42.5h72.3c11.1 0 15.3-8.6 16.3-11.2 1-2.6 3.5-11.5-4.3-18.8L549.9 222.8l-0.5-0.4c-10.3-9.2-23.6-14.3-37.4-14.3-13.8 0-27.1 5.1-37.4 14.3l-1 0.8-331.7 259.7c-7.8 7.3-5.3 16.2-4.3 18.8 1 2.6 5.1 11.2 16.3 11.2h72.3c23.5 0 42.5 19.1 42.5 42.5v181.3c0 43.6 35.5 79.1 79.1 79.1h31.4c23.2 0 42.1-18.9 42.1-42.1v-90.1c0-31.3 25.6-56.9 57-56.9z" p-id="3495"></path></svg>