<?xml version="1.0" standalone="no"?><!DOCTYPE svg PUBLIC "-//W3C//DTD SVG 1.1//EN" "http://www.w3.org/Graphics/SVG/1.1/DTD/svg11.dtd"><svg t="1558086696957" class="icon" style="" viewBox="0 0 1024 1024" version="1.1" xmlns="http://www.w3.org/2000/svg" p-id="2232" xmlns:xlink="http://www.w3.org/1999/xlink" width="200" height="200"><defs><style type="text/css"></style></defs><path d="M852.9 367.1c-18.7-44-45.4-83.4-79.4-117.3-34-33.9-73.5-60.5-117.6-79.1-45.6-19.2-94-29-143.9-29h-3.3c-98.9 0.9-191.5 40-260.7 110.2-69.1 70.2-106.9 163.4-106.3 262.3 0.4 74.1 22.7 145.4 64.3 206.4 9.2 13.5 10.6 31 3.6 45.6l-9.7 20.3c-9 18.8-7.7 40.5 3.4 58 11.1 17.6 30.1 28.2 50.7 28.2 3.3 0 6.6-0.3 9.9-0.8l86-14c4.2-0.7 8.4-1 12.6-1 9.1 0 18.1 1.5 26.8 4.6 39.4 13.8 80.7 20.8 122.7 20.8h4.3c49.1-0.6 97-10.9 142.2-30.8 43.5-19.1 82.7-46.2 116.5-80.4 33.7-34.2 60.2-73.8 78.7-117.6 19.2-45.5 28.9-93.5 28.7-142.6-0.2-49.9-10.1-98.3-29.5-143.8zM515.8 842.3c-38.9 0.5-77-5.8-113.3-18.6-13-4.6-26.4-6.9-40.1-6.9-6.4 0-12.8 0.5-19.1 1.5l-86 14c-1.2 0.2-2.4 0.3-3.5 0.3-6.8 0-13.1-3.6-16.9-9.5-1.8-2.8-5.4-10.3-1.1-19.4l9.7-20.3c13.1-27.5 10.6-60.2-6.6-85.4-37.1-54.3-56.9-118-57.3-184-1-181.7 145.9-330.7 327.4-332.3h3c181.6 0 329.8 147.7 330.3 329.3 0.6 177.6-149 329.3-326.5 331.3z" p-id="2233"></path><path d="M353.5 451.2c-11 0-20 9-20 20V555c0 11 9 20 20 20s20-9 20-20v-83.8c0-11.1-8.9-20-20-20zM512 451.2c-11 0-20 9-20 20V555c0 11 9 20 20 20s20-9 20-20v-83.8c0-11.1-9-20-20-20zM670.5 451.2c-11 0-20 9-20 20V555c0 11 9 20 20 20s20-9 20-20v-83.8c0-11.1-9-20-20-20z" p-id="2234"></path></svg>